<svg width="22" height="30" viewBox="0 0 22 30" fill="none" xmlns="http://www.w3.org/2000/svg">
<g clip-path="url(#clip0_1170_17983)">
<path d="M3.40001 11.45C3.70001 11.35 4.00001 11.25 4.30001 11.05C4.80001 10.75 5.30001 10.45 5.80001 10.15C9.00001 8.04999 12.1 5.84999 15.3 3.84999C16.1 3.34999 16 2.94999 15.5 2.34999C14.1 0.849995 12.7 0.549995 11.1 1.64999C8.00001 3.84999 4.90001 6.24999 1.80001 8.74999C0.500009 9.74999 0.600009 10.35 2.20001 11.05C2.50001 11.15 3.00001 11.25 3.40001 11.45Z" fill="#48E5C2"/>
<path d="M14.5 26.55C12.2 24.75 9.89995 22.95 7.49995 21.15C7.19995 20.95 6.89995 20.75 6.49995 20.55C5.49995 20.05 4.09995 20.25 3.19995 20.95C2.69995 21.45 2.69995 21.85 3.19995 22.25C4.59995 23.45 5.99995 24.75 7.39995 25.95C8.49995 26.85 9.59995 27.75 10.7 28.55C11.1 28.85 11.5 28.95 11.9 29.15C13 28.95 13.7 28.45 14.4 27.75C15.1 27.25 15 26.95 14.5 26.55Z" fill="#48E5C2"/>
<path d="M5.00005 13.05C4.80005 13.05 4.50005 13.25 4.30005 13.35C4.40005 13.65 4.50005 14.05 4.70005 14.15C5.60005 14.65 6.50005 15.25 7.50005 15.35C10.7 15.75 13.9001 15.95 17.1 16.25C18.4001 16.35 19.7 16.55 20.9 16.65C21 16.55 21 16.35 21.1 16.25C20.2001 14.65 18.8 13.75 17 13.35C13.1 12.65 9.00005 12.45 5.00005 13.05Z" fill="#48E5C2"/>
</g>
<defs>
<clipPath id="clip0_1170_17983">
<rect width="20.2" height="28.3" fill="white" transform="translate(0.900024 0.849998)"/>
</clipPath>
</defs>
</svg>
