<svg width="20" height="30" viewBox="0 0 20 30" fill="none" xmlns="http://www.w3.org/2000/svg">
<g clip-path="url(#clip0_1170_17977)">
<path d="M6.26915 29.6386C9.72968 27.6932 13.1902 25.7477 16.5728 23.6843C17.281 23.2168 18.0092 22.6514 18.6394 22.0659C18.8955 21.8121 19.0737 21.4403 19.056 21.0284C18.8848 19.8705 16.694 18.6054 15.6518 19.2086C11.5433 21.3276 7.55283 23.3687 3.44432 25.4877C2.87425 25.7792 2.40215 26.0909 1.93005 26.4025C1.33992 26.7921 1.3376 27.302 1.86524 27.7162C2.82254 28.5247 3.81995 29.1372 4.89528 29.8677C5.30721 29.85 5.8171 29.8523 6.26915 29.6386Z" fill="#48E5C2"/>
<path d="M5.58344 16.5348C6.83928 16.3836 7.99716 16.2124 9.27306 15.9632C11.7068 15.5428 14.2386 15.1425 16.6724 14.7221C17.4183 14.5686 17.8904 14.257 17.8927 13.7471C18.2738 11.8857 17.5526 10.9214 15.7868 11.0703C12.0394 11.4259 8.34974 11.9974 4.66012 12.569C4.0322 12.6446 3.48218 12.8382 2.81415 13.1097C2.59815 13.1676 2.32199 13.5193 2.26181 13.8132C2.29497 15.147 4.20957 16.7639 5.58344 16.5348Z" fill="#48E5C2"/>
<path d="M19.7974 8.93125C20.0134 8.87339 20.3073 8.93356 20.4254 8.85565C20.5634 8.67978 20.5457 8.26785 20.4678 8.14982C20.0782 7.5597 19.6887 6.96957 19.2991 6.37944C17.1531 3.89859 14.1763 2.9829 11.2195 1.96924C8.8305 1.1739 6.51939 0.49658 4.22833 -0.278705C3.83646 -0.358936 3.54256 -0.419109 3.15068 -0.499339C3.07045 -0.107468 2.85214 0.460282 3.10593 0.71639C4.23447 2.68271 5.34295 4.74699 8.08605 5.3086C11.9847 6.20888 16.1017 6.5414 19.7974 8.93125Z" fill="#48E5C2"/>
</g>
<defs>
<clipPath id="clip0_1170_17977">
<rect width="19.9" height="29.6" fill="white" transform="translate(0 0.199997)"/>
</clipPath>
</defs>
</svg>
